<?xml version="1.0" standalone="no"?>
<!DOCTYPE svg PUBLIC "-//W3C//DTD SVG 20010904//EN"
 "http://www.w3.org/TR/2001/REC-SVG-20010904/DTD/svg10.dtd">
<svg version="1.0" xmlns="http://www.w3.org/2000/svg"
 width="700.000000pt" height="700.000000pt" viewBox="0 0 700.000000 700.000000"
 preserveAspectRatio="xMidYMid meet">
<metadata>
Created by potrace 1.14, written by Peter Selinger 2001-2017
</metadata>
<g transform="translate(0.000000,700.000000) scale(0.100000,-0.100000)"
fill="#000000" stroke="none">
<path d="M3452 6383 c-12 -4 -172 -236 -172 -249 0 -2 -5 -10 -11 -17 -10 -12
-28 -39 -283 -432 -83 -127 -186 -286 -231 -355 -45 -69 -146 -224 -225 -345
-79 -121 -165 -254 -193 -295 -56 -85 -66 -124 -44 -167 27 -52 59 -58 196
-36 l119 19 -15 -30 c-8 -16 -41 -70 -73 -120 -205 -325 -643 -1041 -650
-1064 -11 -39 11 -87 49 -106 32 -17 42 -17 216 10 55 9 124 19 152 23 l53 8
-34 -61 c-18 -34 -59 -110 -91 -171 -32 -60 -65 -123 -75 -140 -9 -16 -43 -79
-75 -140 -32 -60 -88 -166 -125 -235 -37 -69 -95 -179 -130 -245 -35 -66 -66
-124 -70 -130 -4 -5 -36 -64 -70 -130 -35 -66 -73 -138 -86 -160 -43 -75 -54
-117 -38 -153 18 -44 66 -63 141 -58 32 3 101 8 153 11 52 3 113 8 135 10 22
2 92 7 155 10 63 4 131 8 150 10 19 2 91 6 160 10 69 4 136 8 150 10 14 2 77
7 140 10 63 4 131 9 150 11 63 7 378 14 760 16 330 2 425 -1 620 -17 25 -2 81
-7 125 -10 44 -3 105 -8 135 -10 30 -3 91 -7 135 -10 44 -3 103 -8 130 -10 28
-2 86 -7 130 -10 44 -3 103 -7 130 -10 28 -2 86 -6 130 -10 44 -3 108 -8 142
-11 94 -7 143 25 145 95 1 17 -22 71 -52 127 -29 55 -73 137 -98 184 -25 47
-73 137 -107 200 -34 63 -86 160 -115 215 -29 55 -63 118 -75 140 -12 22 -53
99 -90 170 -37 72 -71 135 -75 140 -4 6 -38 69 -75 140 -37 72 -77 145 -88
163 -10 18 -17 36 -14 39 3 3 81 -7 173 -22 184 -30 207 -27 237 24 27 45 21
70 -39 172 -31 51 -64 108 -74 124 -29 51 -500 847 -530 895 -15 25 -37 62
-49 82 l-22 37 43 -4 c24 -2 100 -7 170 -10 l127 -8 30 31 c47 47 43 84 -23
179 -45 67 -162 235 -196 283 -21 30 -618 888 -681 980 -230 333 -273 391
-289 400 -19 10 -76 12 -98 3z"/>
<path d="M3474 1653 c-12 -2 -32 -15 -45 -29 l-24 -26 -2 -476 c-1 -304 2
-487 9 -504 13 -34 49 -58 87 -58 43 0 58 8 80 43 18 30 19 56 17 514 l-1 483
-25 24 c-26 25 -61 35 -96 29z"/>
</g>
</svg>
