<?xml version="1.0" encoding="UTF-8" standalone="no"?>
<svg
   height="24"
   viewBox="0 0 24 24"
   width="24"
   version="1.1"
   id="svg4"
   xmlns="http://www.w3.org/2000/svg"
   xmlns:svg="http://www.w3.org/2000/svg">
  <defs
     id="defs4" />
  <g
     fill="none"
     fill-rule="evenodd"
     id="g4"
     transform="matrix(0.52211378,0,0,0.52211378,-11.744418,3.852433e-5)">
    <path
       d="m 53.975805,34.423919 c 1.033427,-1.031906 2.706253,-1.029211 3.736361,0.006 1.030109,1.035231 1.027418,2.710977 -0.006,3.742884 l -4.58889,4.582137 C 48.883646,46.982471 41.980013,47.043774 37.67499,42.897364 37.65011,42.873524 35.733178,40.993929 29.409398,34.792999 25.202341,30.667864 24.783217,24.067065 28.74217,19.828223 l 7.381433,-7.903636 C 40.052795,7.717167 47.2957,7.2573183 51.788176,10.890365 l 6.704107,5.421825 c 1.135331,0.918179 1.312665,2.584485 0.396087,3.721798 -0.916579,1.137313 -2.579981,1.314957 -3.715313,0.396778 L 48.468996,15.008977 C 46.119522,13.108968 42.009621,13.369904 39.982282,15.5408 l -7.381528,7.903738 c -1.927317,2.063573 -1.716233,5.387937 0.504849,7.565769 4.643681,4.55347 8.222512,8.062599 8.226652,8.066579 2.238152,2.155684 5.857111,2.123548 8.054634,-0.0708 z"
       fill="#ffa116"
       fill-rule="nonzero"
       id="path1" />
    <path
       d="m 42.828123,29.838423 c -1.459142,0 -2.64201,-1.184933 -2.64201,-2.646622 0,-1.461689 1.182868,-2.646622 2.64201,-2.646622 h 19.484822 c 1.459142,0 2.64201,1.184933 2.64201,2.646622 0,1.461689 -1.182868,2.646622 -2.64201,2.646622 z"
       fill="#b3b3b3"
       id="path2" />
    <path
       d="m 46.477224,0.83850541 c 0.99686,-1.06739497 2.668761,-1.12316416 3.734296,-0.12456398 1.065535,0.99860017 1.121207,2.67342017 0.124347,3.74081517 L 32.600887,23.444613 c -1.927384,2.063416 -1.716302,5.38776 0.504634,7.565679 l 8.190276,8.031321 c 1.04272,1.022483 1.060569,2.698136 0.03987,3.742676 -1.0207,1.044539 -2.693433,1.06242 -3.736153,0.03994 L 29.409198,34.792868 C 25.202387,30.667537 24.783265,24.066761 28.742394,19.828201 Z"
       fill="#000000"
       id="path3" />
  </g>
</svg>
